<svg viewBox="400 200 800 2000" xmlns="http://www.w3.org/2000/svg">
    <path data-ignore="true" d="m2155.9 434.6 112.1 52.4 2.1-4.5-112.1-52.4.2-.4-4.5-2.1-.2.5-52.7-24.6 59.3-129.3 24.1 11 2.1-4.5-24.1-11 1-2.2-4.5-2.1-1 2.2-46.9-21.3 85.8-186.2-13.5-6.2-18.2 39.4-3.1-3.5c-.9.8-91.1 81.1-133.3 113.5-.4.3-1 .7-1.4 1l-43.1-64.2c62.3-31 112-70.1 112.8-70.7l.4-.3 25.3-48.1-4.4-2.3-24.8 47.2c-7.9 6.2-126.5 97.4-224.5 106.2-18.2 1.6-36 5.3-53.2 10.7-54 17.2-88.3 49-100.7 62-11.4-12.4-19.7-22.7-21.3-27.9-.9-2.8-.8-7.1-.7-11.7.2-10.2.4-24.1-11.1-33.7-15.8-13.3-48.9-14.1-107.3-2.7-6.4 1.3-12.4 2.3-18.2 3 4.6-59.2 51.8-139.5 52.4-140.5l-12.8-7.6c-2.4 4-50.7 86.1-54.5 149.6-73.1 5.1-87.1-32.3-97.7-60.5-3.3-8.7-6.1-16.3-10.3-22-10.4-14.2-50-36.5-85.3-54.5l9.9-18.5-13.1-7-10.1 18.8c-22.7-11.3-41.5-19.9-46.3-22l-6.1 13.5c10.8 4.9 27.4 12.7 45.4 21.6l-43.6 81.2-75.2-37.6 20.6-49.1-4.6-1.9-20.5 48.7-64.2-32.3 10-23.2-4.5-2-9.9 22.9-6.5-3.3-2.2 4.4 6.8 3.4-80.6 186.6-79.1-39 25.1-54.6 25.7 10.6 35.5-45 24.3-75.6-4.7-1.5-24 74.8-32.6 41.4-22-9.1 51.4-111.8-13.5-6.2-224.3 487.7-40.9-11.9 152.7-366.1 4.6-.4 79.5-115.1-12.2-8.5-75.6 109.4-86.2 7.8-220-106.4-6.5 13.4 14.5 7-126.5 179-185.6-80.5 81-137.4-4.2-2.5-81.3 137.9-133.5-57.8-2 4.5 132.8 57.6-23.3 39.4-107.6-48.9-2.1 4.5 107.1 48.7-57.6 97.7-69.3-31.7-6.2 13.5 244.4 111.6-53.9 117.9-186.1-84.9-2 4.5 141.3 64.5c-4 8.6-19.2 41.5-41.9 92.6l-130.5-55.8-1.9 4.5 130.5 55.8c-6.8 15.3-14.2 32.2-22.2 50.4-4.5 10.3-7.5 20.1-9.2 29.6l-86.9-49.3-2.4 4.3 88.5 50.2c-4.1 28.8 3.2 53.3 13.7 72.6l-48.8 106.7 4.5 2.1 47.3-103.5c13.8 22.8 31.2 37.3 36.6 41.4l-42.4 97.1-131.2-58.1-2 4.5 131.1 58.1-23.7 54.3-53.6-22.5-1.9 4.6 53.6 22.5-12.3 27.9 4.5 2 12.2-27.9 104.8 44-29 67-114.1-45.3-5.5 13.8 113.7 45.1-82.4 190.3-79-32.2-1.9 4.6 78.9 32.1-22.9 52.8 13.6 5.9 23-53.1 32.4 13.2-61.3 52.4 3.2 3.8 63.3-54 139.4 56.8-27.5 74.5-215.6-70.7-1.5 4.7 215.4 70.7-17.3 46.9-330.2-109.7-1.6 4.7 330 109.4-17.7 47.8-218.3-74.1-1.6 4.7 218.2 74-15.8 42.8-166.9-62-1.7 4.6 166.9 62-18.2 49.1-123.9-43.5-1.6 4.7 123.9 43.5-18.8 50.9-111.6-42.8-1.8 4.6 111.6 42.8-19.4 52.4-152.3-65-2 4.6 152.5 65.1-19.5 52.6-92.6-31.3-4.8 14.1 92.2 31.2-21.5 58.3 4.6 1.7 21.6-58.4 98.7 33.4-146.2 100.5 8.4 12.2 154.6-106.3 47.9 26.6-184.2 189 3.5 3.5 185.1-190 106 58.9-32.4 97.2 4.7 1.6 32.2-96.8 117.7 45.9-41.8 90 13.5 6.3 42-90.3 63.3 29.4-4.3 14.2 4.7 1.4 4.1-13.5 42 19.5 6.3-13.5-43.9-20.4 31.1-102.6 15.5 5.2 1.6-4.7-15.6-3.2 16.3-51.7h43.1l-46.9 185.6 4.8.2 22.2-89.4 59.5-6.9-27.8 102.8 4.8 1.2 28.1-104 53.6 15-28.3 106.9 4.8 1.3 38.6-145.7 50 13.5-22.6 95.1 4.8 1.2 22.6-95 51.1 13.8-20.5 69 4.7 1.4 20.6-69.1 52.5 14.2-18.2 72.6 4.8 1.2 36.8-147 49.4 13.9-31.6 112.8 4.8 1.3 10.7-38 53.5 13.1-16.3 56 14.3 4.2 16.9-57.8 83.4-28.3 19 47.2 4.6-1.8-18.9-47 124.9-42.4 20 52.8-33.6 35.8 3.6 3.4 31.9-34 14.1 37.1 4.6-1.8-14.9-39.4 81.1-86.4 39 30.1-73.1 96.2 11.8 9 73.1-96.1 65.5 50.5-29.3 39.6 4 2.9 29.2-39.5 35.7 27.6 3-3.9-35.8-27.6 76.4-103.1 68.3 55.3-69.1 95.2 4 2.9 35.8-49.3 63.1 43.1 2.8-4.1-62.9-43 30.2-41.6 150.9 122.2 9.3-11.5-96.6-78.2 25.2-37.8 72.3 49.1 8.1 39.3 4.9-1-34-164.5 31-46.6 64.9-6.7 57 223 4.8-1.2-56.9-222.3 63.3-6.5 48.2 229.9 4.9-1-48.1-229.4 59.2-6.1 36.4 69.5 13.2-6.9-33.7-64.2 66.2-6.8-.5-4.9-68.1 7-111.8-213.2 103.3-80.5-3-3.9-103.2 80.4-51.5-53.2 174.1-121.5-2.8-4.1-174.8 123.7-53.8-53.8h89.1l168.7-138.1-9.3-12.4-63.9 51.2-6.9-91.8 92.8-4.8-.3-5-92.9 4.7-11.4-152.4 141.8-9.6-.3-4.9-141.8 9.5-5.9-78.5 57.2-39 21.1.7.5-14.8-82.9-2.9-3.6-88.8 42.9-68.7 18.9-2.5-.7-4.9-14.8 2 24.6-39.4 6.1 2.6 1.9-4.6-5.4-2.3 14.8-23.6-4.2-2.6-15.2 24.3-74.2-31.3 57.9-134.1 1.9.9 2-4.5-2-.9 33.8-78.2-4.5-2-33.8 78.1-42.9-18.9zm-64.4 123.5-22-9.7 56-128 25.9 12.1zm-13.6 164.6 3.3 81.2-51.6 6.9.2-108.4zm10.5 251.7 2.1 27.4-106.1 72.4-4.5-28.9 45.6-73.1zm-218.6 829.4 27.1-37.3 7 33.8zm35 1.3 8.5 41-47.4 71.2-52.6-35.7 52.5-72.4zm-41.7-.7-116.3 12 85.2-115.1 61.3 48.9 2 9.7zm-614.5 90.1-19.6-48.6 7.9-27.3 110.5-39 25.9 68.4zm-240.7-36.9 2.8-29.7 50.4-55.8 32.1 7.8-11.6 98.6zm-92.6-26.1 34.6-24.6 55.8 21.6-2.6 27.8zm-101.6-.6 66.1-211.4 67.5 19-32.1 107.8-29.8 23.7-3.7 19.8-1 .6 17.5 36.5-3.7 4zm-321.8-1551.4 1-2.2-21.5-9.8 29-41 63.9 27.7-67.6 154.6-51-23.3zm-50.8 104-39.1-17.9 66.5-94 17.9 8.2zm404.6-208.6h.1l-71.2 165.2-45.9-19.9 62.4-143.9 24.5-14.7 18.8-7.4 13.8 19.1v1.6zm97.7 156.2-23.8-10.2 9-19.7 22.7 12.1 6.8-3.4-12.3 27.5zm-3.9 3.7 9.2 23.5-21.9 49.4-39.3-17.1 30-65.2zm-14.7 77.4-53.2 120-41-17.9 54.8-119.2zm-1.1 51.6 19.8-13.7 9.3-25.7 17.9 7.8-52.1 120.6-20.3-8.9 15.7-37.1-4.6-1.9-15.6 37.1-17.7-7.7 53.2-120 18.9 8.2-8.8 24.5-18.5 12.8zm273.1-239.2 23.7 18.4-28.2 52.5-60.8-24.5 26.4-62.8zm405.7 146-36 20.7 2.5 4.3 35.3-20.3c7.6 19.8 13.8 35.6 16.9 43.7l-23.3 14.3-62.8-21.3-3.3-76.3 66.1 23c1.6 4.1 3.1 8.1 4.6 11.9zm361.7-126.5-33.9 76-28.4-69.3c17.9-.7 40-2.4 62.3-6.7zm70.6-27 4.2 1.9-56 129.3-49.5-23.1 36.7-82.3c23.5-5 46.7-13 64.6-25.8zm4.5-3.3c1-.8 1.9-1.5 3-2.3l-1.3 3.1zm-56.4 888.5-14.7 1 14.1-9.6zm-37.8-1.2 30.8-49.3 4 25.6zm-10.2 6.9-13.8 9.4-2.6-149 44.7 1.6 11.5 74.3zm-216.4 497.9h-1.8l3.1-158h64.5v73zm-20.3 109.3-21.3-49.1 42.4-54.8 36.1 28.8zm-23.5-54.3-23.6-54.4 62.1-79.2-1.5 76.8v1.2l3.8 3zm-164 32.7 22.4-26.7-3.8-3.2-22.5 26.8-45-36.5 133.3-164.1 50.2 115.8-94.4 120.4zm-406.1-15.2-71.5-20.8 33.1-102.8 62.1 19.6-1.2 3.7-21.4 99.5zm-46.6 89.8-5.6 6.2-22.9-24.2 67.3-48-5 17-25.8 10.5zm-50.4 55.7-52.9-20.5 43.6-31.1 28.3 30.5zm-90.8-73 8.3 11.4-37.8 23.9 2.5-13.6zm-14.9-219.6-60.2-16.7 8.5-28.2 59.8 18.9zm-50.2-49.6 42.3-139.6 61.3 19.8-43.7 138.8zm-104.4 91-78.5-41.5 15.4-34.7 78.6 20.4-5.9 20.5zm-197 212.9-45-40.4 74.3-76.2 18.3 9.5zm-21.1-142.8 45.8 23.8-73.4 75.3-37.4-33.6zm22.1-464.4-15.7 40.5-93.1-38.1 14.7-39.7zm262-508.4-77 115.3-16.6-7.4 48.6-127.7zm311.7-396.3-33 78.6-24.3-10 29.8-79.1zm273.1 97.1-101.5 192.3-3.4-1.2-3.2 3.7-88.5-38.5 94.4-190.9zm139.5 99.5-2.3-53 57.1 19.4zm-4.8 2.9-8.5 5.2-.7.5-.6.6-71.6-34.9 23.4-47.9 55.6 18.8zm100.1-15.5 69.6-9.2 13 85.4-95.1 12zm298.6-128 49.6 23.2-56.9 131.4-5.1-2.3-6.7 3.8-21.9-70.6 3.3-1zm30.6 367.3 2.9 122.3-48.9 6.5-2.3-130.6zm-43.8 256.5-2.1-122.7 49-6.5 3.1 131zm-137.5 259.7-57.3 39.1 1-53.2 56.2-1zm4.8-15.2 18-.3-17.8 12.2zm-187.3 288.5 1-38.6h58l-35.3 94.2zm-270.6 254.5 82.4-109.6 38.4 31.1-85.8 105.6zm-340.4-96.7 32.4-104.2 41.8 13.2-33.2 102.9zm33.9-108.9 24.1-77.5 42.5 13.8-24.8 76.9zm-327.7-72.2-46.8-19.1 49.8-91.9 55-19.6zm-106.5-336.6 18-47.3 125.9 49.6 15.2 46.5-82.9 31.3-92.7-36.8 14.8-38.8 104.4 47.3 2-4.5zm-38.6-69.6 42.8 16.9-17.7 46.6-62.4-28.3zm112.5-166.4-70.6 58.4.9-30.3 29-64.8 47.7 18.6zm23-12.1 6.3 2.2v117.8l-1.3.2 40.3 124-122.3-48.2 74-193.9zm252.1-154.3-19.4 46.3-85.3-38 32-40.4zm115.4-262.4 43.3-103.1 53.3 22-52 100.4zm143.3 67.7-59.7 117.7-72.4-31.6 44.7-124zm185.4-114 64.6 31.4-70.7 144.5-72.7-26.5zm473.7 105.9c.6 1.9 1.2 3.8 1.7 5.7l-42.6 156.9-1.3 2.1-82.6-27.7 7.8-12.2.5-.8-16.3-107.2zm-531 1020.1 37.4-25 55.1 42.8-.6 56.6zm-273.5-154.5 17.6-56.1 43.5 13.4-15.5 57.4zm-170-214.4 6.9-21.7c1.7-1.9 5.5-6.1 10.6-11.6l115.5 40.8-10.3 32.8zm-47.5 104.1-62.5-23.5 3.6-31.3h25.3l44.2 19.4zm12-41.2-44.6-20.6h-27.3l-18.9-25.9 59.4-22.6 48.4 15.9zm139.2-388.1 56.4-3.3-.2-2.5 2.2 1.1 29.8-58.9 23.2 10.2-149.2 171.9zm306.1-106.6 27.4 9.5-32.1 99.1-47.5-15.4 14-51.8zm343.1 59.5-44.5 69.4-61.8 8.2 37.2-116.7 4.2-12zm94.1-137.6 82.8 27.7-45.6 75.1-69.8-51.8zm34.6 107-46.4 76.4-70.3-55.4 46.8-73zm-59.9 84.8-106.9 14.3 42-65.4zm-88.6 169.2 49.4 10.5-1.3 161.1-39.7.7c-5.3.1-10.4.5-15.3 1l4.3-169.1zm2.7-4.4 30.8-50.7 15 60.5zm-5.1-1.1-23.1-4.9 51-76.8 6.3 25.4zm-28.3-6.1-70-14.9 78.9-123 90.7-12.1zm-202.1 324.3 31.5-98.7 58.6 18.7-5.5 107.7zm80.6 94.7-96.3-40.7 12.3-39.8 84 27.4zm-137.9 43.9-70.3-22.7 40.1-128.9 15.9 5.2-25.5 110.3 47.9 8.9zm-308.4-299.7-113.3-40c10.1-10.7 23.9-25.1 38.1-38.6l91.1 28.3zm-186.2-180.3 82.5 32-17.5 54.9-86.1-36.7zm114.7-20.2.9.8 155.9-179.4 6.8 3 62.1 50.8-67.7 73.3-59.4-58.1-3.5 3.5 59.5 58.3c-12.5 13.4-97.9 105.1-129.1 125.9-21.5 14.3-50.8 43.5-71 64.6zm264.8-145.3 23.7 7.7-35 129.6-89.5-28.2c1.6-1.8 2.7-2.9 3-3.3zm3.7-4 32.8-35.5-11.5 42.4zm148.5 21.1 38.4 11.6 12.7-20.3 24.6 8.8-14.1 45.3-3.6.5-65.5-21.2zm57 50.6.5.2 2.5-.3-39.7 127.6-68.8-21.7 39.5-127.2zm90.2 98.9-17.1-3.8 34.8-109.2 59.9-8zm-31.7-7.1-73.7-16.6 23.7-76.1 83.2-11.1zm-109.4 342.8-69-22.6 45.9-147.6 70.1 22.9zm-213.5 20.2-18.2-5.6 4.8-14.5 17.9 5.6zm5.9-19.3-17.8-5.5 15.9-48.3 16.7 5.5zm-27.5-62.3-13.4 49.5-42.5-13.2 15.6-49.5zm-20.5-66.7 31.9-10.2 3.5 15.9-3.2 2.4-21.8 15.3-12.1-11.4zm67.4-26.7-32.3 10.3-12-22.8 6-24.7h18.7l-.8 1zm44.9-196.7-15.6 34.6-.5 6.9-69-24.3 12.6-40.1zm13.2 249-23.4-8.9-9.2-13.6 10.4-39.8 36.9 15zm-55.5-47.5 6 8.9-17.7 1.8-18.5 13.7-3.1-14.2 33.1-10.6zm-9.8 15.5 19-2 17.4 25.7-6.2 16.6-25.5 14.3h-11.6l-16.6-35.8zm81.5-20-37.1-15.1 10.2-39 39.7 12.9zm-25.5-58.9 23.3-73c2.5-1 4.9-1.8 7.2-2.6 16.4-5.3 28.8 12.9 31.4 17.2l-22.2 71.4zm83.3-110.6 68.8 21.7-39.1 125.9-68.6-22.4zm-19.5 46.1c-5.5-7.5-18-21.2-34.8-15.8-1.5.5-3.1 1-4.7 1.6.7-8.2 1.8-25.9-1.5-31.5-2.3-3.8-2.9-14.2-3-20.6l58.9 18.5zm-49.1-67.7c0 5.2.4 19 3.8 24.7 2.3 3.9 1.6 20.6.6 30.9-3.6 1.4-7.4 3.1-11.1 4.8-1.1-3.1-3.4-8.2-6.7-11.6-4-4.2-12.2-2.8-17-1.5l1.1-17.2 15.5-34.4zm-32.6 67.8.9-.7 1-14.7c4.9-1.6 11.6-2.5 13.8-.3 2.8 2.9 4.8 7.6 5.7 10.3-15.1 7-28.6 14.4-29.5 14.9l-.7.4-5.6 11.4-10.7-1.7c5.9-4.8 17.3-13.6 25.1-19.6zm-72.5-51.7 70.2 24.7-1.6 23.8c-9.1 7-22.8 17.6-27.4 21.4l-54-29.2zm43.3 75.7 17.6 2.8 6.6-13.3c3.8-2.1 23.2-12.4 40.3-19.6l-22 69.1-45.9-15c1.1-9.8 2.6-20 3.4-24zm41 43.7-20.8 79.7-15-22.2-21.8-39.9 12-32.6zm-84.9 150.3 16.2 5.3-15.9 48.4-13.6-4.2zm-16.2-21 3.5-19.3 20.2-12.7 17.6 37.9h15.9l28.2-15.6 6-15.5 23.8 8.6-15.4 49.5zm150.2-113.3 68.6 22.4-45.9 147.6-68.5-22.5zm144.9 42.1-70.2-22.9 39.1-126 71.4 22.5zm41.8-131.1-71.4-22.5 15.2-49 73.7 16.5zm-149.6-47.2-59.7-18.8 41.2-127.2 58 18.8zm-64.5-20.2-41.1-12.9 35-129.6 47.3 15.3zm-210.5 139-88.4-27.5c11.8-11 23.5-21 33.3-27.5 5.6-3.7 12.7-9.4 20.7-16.5l51.7 16.9zm-30.2-75.3c21.6-19.4 48.6-46.7 70.2-69.2l2.1 10.5-23.5 74.6zm77.5-58.4-3-15.1c11.5-12 21.2-22.3 27.3-28.8l42.2 13.3-38.7 123.3-51.7-16.9zm42.9 61.2 52.9 28.6c-.7 3-1.8 9.5-3.7 23.9l-59.7-19.5zm49.1 57.4-9.3 28v4.7h-26.2l-7.2 28.8 12.5 23.5-32.1 9.6-27.5-21.8 29.4-92.2zm-91.4 77.4 26 20.3-2 14.7 14.5 13.6-3.3 18.3-50.8-16.7zm6.3 73.1-15.6 49.5-26.7-8.3 15.7-49.9zm-43.7 46 26.7 8.3-4.7 14.8-26.7-8.2zm31.4 9.7 42.7 13.3-4 14.8-43.3-13.3zm47.4 14.8 13.4 4.2-4.8 14.6-12.6-3.9zm7.1 23.4-9 27.5-11-3 7.6-28.3zm4.7 1.5 18.3 5.6-17.5 57.3-19.4-6.3zm45.1-65.3 36.8 12-40.2 129.3-36.2-11.7zm41.5 13.6 68.5 22.4-40.1 129-68.6-22.1zm113 143.7-17.7-3.3 19.8-56.4 14.1 6zm-.8-66.4-21.8 62.2-20.8-3.9 24.2-104.9 48.4 15.8-11.6 38.6zm138.9-125.4-57.4-18.3 14.4-45 45.8 9.6zm-41.5-68.1 59.4-186.2 15.8 3.5-22.3 34.7-.4.6-8.1 156.7zm57.5-145.8 22.9-35.7 69.9 14.9-3.2 4.8-.2.3-53.9 180.9-43.5-9.1zm63.1-280.9-19.8 62.1-72.5-25.1 32.8-105.6 65.5 51.6zm-21.3 66.8-18.1 56.8-83.3 11.1 28.9-92.9zm-91.3 18.6-28.1-10-12.8 20.5-34.7-10.5 21.4-68.8 68.3 23.6zm-89.4 27.7-58-18.8 32-99 56.4 19.5zm-175.7-23.2-62.5-51.2-1.6 1.9 1-2.3-5.7-2.5 95.7-110.2 70.4 58.9zm-73.6-56.2-24.3-10.8 59.3-117.1 9.1 4c3.5 1.9 29.6 15.3 54.1 10.9zm-169.1 178.7-77.4-30.2 35.1-83.7 69.2 29.4zm-1.5 4.8-2.5 7.8-78.7-30 3.4-8.1zm-4 12.5-11.5 36.1-82.1-31.8 14.4-34.5zm-120 57.1-107-46v-98.4l144.9 55.5zm-3.1 4.5-37.1 88.5-28.2-11.1-40-122.2zm-39 93.1-11.9 28.3-12.4-37.9zm4.6 1.8 32.7 12.9-45.3 17.2zm48.8 8.6-2.5-.8-6.7 2.5-37.7-14.9 37.1-88.4 86.5 36.8-25.9 81.3zm238.6-84.1 51.7 16.9-46.2 147.2-51.8-17zm1.1 178.2-18.7 59.6-51.9-16.8 18.8-59.8zm-18.7 75.9 26.7 8.2-17.6 56-26.5-8.6zm70.8 57.6 10.7 2.9-8 24.5-9.2-3zm66.2 53-17.5 56.2-61-19.7 18.1-56zm4.7 1.6 68.6 22.1-17.5 56.3-68.6-22.2zm73.4 23.6 70.3 22.7-17 56.6-70.8-22.9zm164.7 96-50.8-39.4 51.5-34.3zm-92-29.8 38.5-128.1 93.8 40zm146.5-157.5 8.2-167.2 47.1 9.9 54.8-184.6 4-6.1 23.3 5-2.1 3.4-.3.6-4.3 171.2c-21.4 3.3-37.7 11.4-48.6 24.3-17.8 20.9-14.8 46.7-14.5 49.1l3.8 106.1-66 45.6v-55.7zm70.6 33.9-.7 34.3h-49.5zm5-5.6 51.1-33.8-1.8 73.6h-50zm-.1-20.1-3-103.1v-.3c0-.3-3.4-25.6 13.4-45.4 10-11.8 25-19.3 44.7-22.5l-3.4 135.9zm60.1-171.9c4.9-.6 10.1-.9 15.5-1l39.6-.7-.8 95.6-57.6 39.3zm60-1.9 54.2-1-1.1 56.6-53.8 36.8zm0-4.9 1.3-161.3 56.5-23.1-3.5 183.4zm.6-166.4-16.4-66.3 49.2-81 24.2 124zm-18.2-73.1-6.2-25 46.2-69.5 18.7-2.5.2.2zm73.8-104-3.2-2.5 57.8-95.2.9 90.3zm55.6-2.4.5 46.6-50.7-40zm3.9-103.4 34-54.5 29.2 1v143l-61.3 8.1zm-48.9-101.7-8.4 13-41.6 3.3-15-115.6 49-6.2zm-11.7 18.3-30.9 48.1-.9-.7-5.8-44.4zm-36.5 50.1 2.9 2.2-46.7 72.8-16.9-13.3-10.7-103.1 65.3-5.3zm-76.3-41 10.2 98.5-45.4-35.7 21.6-61.7zm-47.5 53-56.7-44.6 74.4-6zm-108.1 67.2-68.3-23.6 40.8-131.5 60.8 47.9zm-73-25.2-86.3-29.8 95.4-103.3 14.3-14.1 17.9 14.1zm-1.4-143.6-105.6 114.3-70.5-59 3.1-3.6c5.3-2.1 10.5-5.2 15.1-9.8 21.4-21.4 65.3-71.3 77.8-85.6l90.8 33.1zm-168.4 31.4c-20.5 20.5-60.1-1-60.5-1.2l-.3-.2-9-3.9 59.6-117.7 87.3 38c-12.1 14-56.2 64.1-77.1 85zm-81 5.9-59.3 117.1-55.8-24.6.5-1.6 43.9-121.7zm-61.6 121.5-29.1 57.4-53.1 3.1 27-84.8zm-109.6 97.8-68.8-29.2 52.2-124.3 57.5 25.4zm-129-143.2 86.6 38.5-30.9 73.5-108-45.9zm-55.6 70.2 109.3 46.4-35.1 83.9-135.4-52.8zm73.4 134.8-2.8 8.1-146.9-56.2v-10.8zm-187.7 279.3-15.2 42.1-93.7-38.4 15.8-40.7zm4.6 1.8.2.1 85.1-32.2 19.9 26.9-3.6 32.6-31.5-12.5-21.7 53.5-63.6-26.1zm46.6 72.8-17.3 42.7-5.8 2.1-.5 1-57.2-23.7 17.4-48.1zm-11.1 40.5 37.4-92.1 28.2 11.2-6.6 59.8zm70.4-79 61.7 24.5-1 3.3-25.5 13.4-41.5 14.8zm88.2-14 17.9-56.2 55.5 18.2-39.7 131-55.4-17.8zm78.1-36.5 62.6 20.5-41 130.2-61.3-19.8zm47.1 86.6 51.9 16.8-20.6 65.7-51.9-16.7zm29.8 87.2-17.6 56-52-16.8 17.6-56zm4.7 1.5 43 13.9-17.5 56.1-43.1-13.9zm47.7 15.4 43.2 13.9-18 56-42.6-13.8zm28.3 76.1 61 19.7-23.8 76.8-62-19.6zm65.7 21.2 68.6 22.2-23.7 76.3-68.7-21.7zm73.3 23.7 67.3 21.8-95.2 67.8zm174.7 110.2-50 66.4-68.5-50.5 26.4-90.4zm-119.9 20.9 67 49.4-30.1 40.1-59.3-12.5zm132.8-29.6h.4l1.5-141.8 47.4-29.9h7.5l-3.3 186.7-14.7 17.2zm61.7-171.7h58.6l-2.1 107-59.7 74.3zm63.5 0h49.9l-1 38.2-50.8 63.5zm55.2-14 1.9-78.2 57.9-38.5-.9 116.6h-58.9zm64.9-121.1 53.6-35.5-3 156.6h-51.6zm58.6-40.1 57.9-38.4 2 199.6h-62.9zm1.5-78.5 3.6-185.4 50.4-20.6 2.1 204.9zm3-190.5-25.1-128.4 8.1-13.3 67.2 52.9.7 67.9zm55.2-84.8 52 41-51.4 21zm1.4-19v-51.2l60-8v106.3zm66-59.9 52.5-7.2 1.4 120.2-54.7-2 .8-.2zm52.5-12.2-52.4 7.2v-142.2l50.8 1.9zm-85.6-141.1.3-.5.2-.3 40.6-149.8c14.3 48 28.7 97.1 40.4 137.9l.3 15.7zm90.5-35c-7.9-27.3-23.3-80.2-39.7-135l51.5-29.2 53.1 23.4zm.4-163.4-41.6 23.6c-.9-2.9-1.7-5.7-2.6-8.6-8.8-29.3-16.3-53.7-22.7-74l44.6-12.7zm-55.7 28.3-70.6 8.9-14.9-85.5 59.7-7.8c8 25.6 16.8 54.5 25.8 84.4zm-75.5 9.6-56.4 7.1-13-85.4 54.5-7.2zm-114.6 19.4 15.1 115.5-81.3 6.6 12-34.2 11.7-82.4zm-68.7 84.3-13.7 39.1-81.9 6.6-5.9-4.7-5-103.1 117.4-14.9zm-106.7 36.9-73.6-58 55.5-54.9 13.2 12.8zm-86.7-65.9-21.5-7.8 70.5-144 70 34.1zm46.7-158.4-64.4-31.4 20.4-38.7 67.2 22.8zm-249.9 82.6-87.3-38 91.7-177 2.7-5.1 87.1 29.5zm-8.7-222-37.9 73.2-53.6-22.1 33-78.7 60.3 24.3zm-122.2 43.9 24.1 9.9-43.2 103-20.1-8.8zm-21 117.4-18.2 43.3-18.7-7.2 16.9-44.7zm4.5 2 44.2 19.2-44.7 124-50.3-22zm-5.6 157.2-44.3 122.7-.2.5-57.1-25.2 50.5-120.3zm-106 96-72.2-31.9 51.6-119.4 71.1 31zm-231.4 162.7-18.9-7.4 21.5-17.8-.6-.8 30.9-66.8 78.5-117.5 40.7 18zm27.4-92.6-30.4 65.7-19.4 16.1 33.8-88.9zm-64.4 78.2-47.4-18.5 40.9-91.4 41.3 18.4zm-52-20.3-48.2-18.8 40.7-94.4 48.5 21.6zm-156.2-179.5 38.9 17.3-42.9 99.7-40-15.6zm43.4 19.3 48.6 21.7-43.2 96.6-48.1-18.8zm143.3-53.7-40.6 94.1-47.6-21.2 38.7-86.6zm-92.7 70.9-48.7-21.7 63.4-147.4 23.2 83 .5.1zm2.5 6.5 47.7 21.3-40.8 94.6-50-19.5zm54.2 20.2 40.9-93.4h59.8l-52.1 115.8zm41.9-111.3-48.7-13.5-.3-1 63.9-147.3 46.5 19.2zm-51.1-22.1-23.5-83.6.8-1.4 34.2-76.8 50 20.4zm13.5-166.8 57.9-129.2 47.9 20.8-56 129zm-4.5-1.9-44.4-18.4 56.9-130.6 45.5 19.7zm-46.4-13.8 44.3 18.3-32.5 72.6-18-64.3 1.7-3.9-4.5-2zm-15.6 48.2 18 64.3-65.7 152.9-38.9-17.3zm-59.8 100.9-46.7-21.3 51.9-118.7 46.2 21.1zm-2 4.5-38.4 88.5-47.5-20.3 39.2-89.5zm-40.3 93.1-43.8 101-45.5-25.8 41.8-95.5zm-32.3 112 40 15.6-29.7 69.1-38.2-20.4zm44.6 17.4 48.1 18.7-33.1 73.8 4.5 2 33.1-74 49.1 19.2-55.8 70.5-75.8-40.7zm43.5 114.4-32.9 80.6-51.9-23 35.9-83.7zm5.2.1 57.8-73 48.9 19.1-29.1 65-.2.4-1 35.6-66.2 54.8-43.8-19.4zm148.6-6-64.4 169.3-40.5-16 30.5-28.7-3.4-3.6-72.7 68.3-32.5-38zm-150.2 195.8 64.6 29.3-15 39.4-86.3-34.2zm26.7 127.7-18.3 47.3-92.1-38.1 17.5-47.3zm13.7 5.6 93.8 38.4-17.4 48.1-94.8-39.2zm74.8 91.2-18.3 50.7-96-39.7 19.5-50.2zm4.5 1.9 56.5 23.4-25.8 47.6-49-20.3zm28.3 75.3-22.2 40.9-41.9-17.1 15.9-43.8zm-24.6 45.4-29.3 53.9-33.6-11 21.6-59.7zm-31.8 58.3-26.8 44.6-23.1-7.7 17.2-47.7zm-29.4 48.9-27.8 46.3-12.3-4.2 17.9-49.4zm-30.3 50.6-16.8 28.1-9.6 9.7 15-41.6zm60.9 73.2-16.7-8.7 37.8-38.8zm26.9-60.5-48.2 49.5-45.8-23.8 1.1-1.1 78.6-131 49.8 26.4zm-11.8-110.7 29.4-54.2 47.1 19.2-27.1 61.1zm149.1 9.4-77.9-20.3 20.2-45.4 70.8 20.3zm14.4-50.1-70.1-20.1 18.1-40.8 64.9 15.8zm-49.9-65.5 29.4-66.2 51.5-18.4 14.3-7.5-31 107.7zm105.3-73.7 55.3 17.8-26.8 88.5-55.2-13.5zm106.9 101.3 51.9 16.8-24.4 77.7-52.1-16.5zm56.7 18.3 43.1 13.9-24.1 77.5-43.4-13.7zm17.5 96.2-32.5 104.3-44-12.8 33-105.2zm12.2 122.4-8.6 51.4-82.9-18.1 16.4-55.2zm-93 38.1 83.5 18.2-4.4 26.2-63 44.9-30.3-41.5zm-6.2 67.2 18.2 24.9-44 31.3-15.2-30.4zm101.9 32.9-27.5-29.8 23-16.4 23.6 25zm-10.9-59.8 12.9-77 67.5 19.7zm112.9-160 1.1-3.5 68.7 21.7-4.6 14.8-85.4 60.9zm165.2-20-47.7 163.5-57-13.2 7.1-80.9zm-34.5 171.5 60.6 12.8 34.9 26.9-119.4 42.1zm100.2 43.4 44.8 34.6-30.1 35.8-25.3-66.7zm4-3.2 85.7-105.5 44.8 36.3-86.6 103.2zm258-223.3 37.7-99.9h52.3l-1.5 72.9-64.5 82.3zm166.4-99.9h51l-51 66.6zm53-132.9-16 .6v-52.7h16zm0-58.1h-24v63.8l24-.8v114h-56.3l-1.1-204 57.4-40.8zm-32.3-64.3-25.9.5-2.3-206.8 55.7-22.8 1 .8 2.8 1.5h1.1v205.3zm38.3-226.7 54.8 2 3.5 159.5-58.3 40.3zm118 4.3 51.6 1.8-41.1 65.8zm5-14.7-3.1-131.8 54.6-7.3-.2 140.9zm-3.2-136.8-2.9-121.4 55.5 2.1 2.2.9-.2 111.1zm-56.3-128.4-.3-15.8 72.6-157.5 47.6 21-70.6 154.1zm74.4-177.8 59.3-128.6 46.9 21.9-58.6 127.7zm-13.6-6-45.8-20.2 56.8-131.3 48.4 22.6zm13-156.1 56-129.3 51.7 23.5-59.2 128.5zm-90.8-99.4 30.9 75.4-37.3 83.8-1.2.3-47.8-153.5c10.2-3.3 21.2-5.7 31.7-5.7 5.8 0 14 0 23.7-.3zm-12.5 160.8-44.6 12.7c-29.4-93.6-33.7-96-37.2-98-3.2-1.8-12.4-9.5-24.1-20.1l22.3-30.7c4.1-2.5 18.5-10.9 36-17.2zm-90.2-73.1c4.3 6.7 16.1 41.5 31 88.7l-59 7.8-15.7-90.1 19.4-26.6c11.2 10 20.2 17.5 24.3 20.2zm-48 10.9 15.1 86.2-54.4 7.2-9-59.3zm-52.9 37.3 8.6 56.7-68.1 9 3.7-26.3zm-88 161-119.9 15.1-13-12.6 60.5-59.8 88.1-54zm-78.3-214 3.3 76.4-53.1-18 31.7-64.7zm-54.6 56.8-67-22.7 34.1-64.6 64.6 22.5zm-71.8-24.3-57.6-19.5 11-35.7-4.7-1.5-11 35.5-40.1-13.6 32.7-66.1 103.8 36.2zm-29.5-193.2-42.6 86.2-39.2-14.8 51.5-86.7zm-86.5 69.7-39.2-14.8 49.9-93 41 20.6zm-41.5-10.4 83.2 31.4-32.8 66.2-87-29.5zm-116 36.6-69-26.4 28-64.9 67.4 28.4zm-70.9-21.8 37 14.2-70.7 187.7-45-19.6zm-35.5 206.5-18.7 49.6 23.1 8.9-30.8 73.4-70.9-31 52.1-120.6zm-196.1 74 88.3 38.6-51.6 119.4-91-40.1zm-118.3 244-41.1-18.3 52.9-118.3 34.9 13.8zm13-148.9h-59.8l117.9-275 47.4 21.2zm-1.8-150.1-46.5-19.2 55.9-128.9 45.9 19.9zm95-315-25 15-63 145.3-47.9-20.8 85.3-190.1 55.3 26.8zm-140.5 137.6-45.5-19.7 84.1-193.1 46.7 22.6zm-50.1-21.7-50.9-22.1 85.4-195.3 49.7 24zm-2 4.6-67.8 155.7-50.7-23.2 67.7-154.7zm-129 144.1-51.9 118.7-51-23.3 51.9-118.8zm-53.9 123.3-39.2 89.6-51.4-22 39.7-90.9zm-95.2 65.7-43.6-18.7 41.7-91.3 41.6 19zm-2 4.5-38.8 88.8-42.9-24.3 38-83.1zm4.6 1.9 51.4 22-41.5 95-48.9-27.7zm7.9 121.6-28.5 65.3-49.6-26 29.2-67zm4.3 2.5 45.5 25.8-27.6 63.6-46.4-24.3zm16 94-38.9 89.8-48.2-21.4 40.6-92.8zm-7.5 54.6 33.3 16.5 2.2-4.4-33.5-16.6 18.7-43.1 64.7 34.6-36.1 84-67.2-29.8zm103.8 100.6-20.3 49.9-125.8-52.8 22.5-51.9zm4.6 2 41.4 18.4-73.8 61zm-2.8 61.4 32.7 38.2-37.9 35.6-56.8-22.6zm-17.9 84.7-14.7 39.6-51.8-21.2 35.8-30.6zm-70.7 22 54.3 22.3-17.5 47.3-79.7-33zm-47 40.2 82.2 34-18.7 50.5-106.8-44.2-2.2-1.5zm86.7 35.9 92 38.1-19.5 50.2-91.3-37.8zm70.8 92.9-17.1 44.1-90.7-36.9 16.6-44.9zm13.7 5.7 96.1 39.8-15.9 43.9-97.3-39.6zm78.6 88.3-21.7 60-101.5-33.3 25.8-66.4zm-23.4 64.7-17.2 47.7-102.6-34 18.2-47zm-18.9 52.3-17.9 49.4-100.4-34.1 15.8-49.3zm-19.5 54.1-17.7 49-97.5-36.3 15-46.7zm-20.4 53.2-37.6 37.9-74.1-26 15.3-47.8zm-41.5 41.9-46.1 46.5-43.3-16.6 17.6-55.1zm-49.9 50.3-47.2 47.5-12.4-5.3 18.6-57.9zm-50.9 51.3-17 17.1 6.9-21.5zm100.6-80.2 37.4 33.6-54 55.4-63.3-8.5zm41 36.9 46.3 41.7-10.3 23.1-87.7-11.8zm165-213.1 79.2 41.9-41.1 150.8-49.5-10.4-1 4.8 49.2 10.3-26.9 98.9-133.6-18zm93 48.9 51.5 15.7-69.6 230.7h-48.5zm1.3-6.2 10.1-37 34.7-120.9 55.1 13.4-48.3 159.5zm79.2-58.9 60.2 16.6-23.9 76-59.1-17.2zm74.5-12.5 52.1 16.5-33.1 105.3-52.6-15.3zm179 268-30.7-7.5 7.1-34.2 25.6-10.4 6.9-23.2zm100.5-142.2-6.7 75.6-66-23.8zm-2.8 82 56.5 13-25.4 87-52.8-22.7zm-23 82.1 52.8 22.7-26.5 90.9-53.8-15.2zm58.3 56.8 17.2 42.6-33.2 12.4zm184.7-41.7 43.2 33.3-52.4 64.7-22.7-59.9zm3.2-3.8 86.5-103.1 40.5 32.8-83.9 103.5zm130.8-67.2 41.3 33.5-80.7 104.3-44.4-34.3zm9.3-11.6 92.8-118.4 23.6 54.5-75.3 97.3zm118.7-58.7 21.3 49.2-57.9 76.1-37.1-30zm93.5-21.2 61.3 48.9-116.9 157.8-62.9-50.9zm130.9 98.1-62.9-50.2 60.4-81.6 65.2 54.2-61.3 84.5zm-66.7-53.2-61.2-48.8 62.4-82.1 59.3 49.3zm-72.8-58.1-36-28.7 63.8-82.5 34.8 28.9zm30.8-113.4 59.3-74.8h55.7l-80.2 104.6zm61-88.9v-248.2l57.9-38.3 3.5 286.5zm73.5-165.6 69.4-2.4 10.6 168h-77.2zm-.1-7.1-2.2-126 39.2-26.8v.3l22.5-1.5 9.6 150.5zm64.5-154.3 56.1-3.8 8.7 151.6-55.2 2.8zm-.3-5-.7-11.6 54.3-37.1 2.6 44.9zm41.8-286.2 51.8-6.9 2.4 60.7-54.4 87.2zm-5.5-121.1-.4-.2-55.4-2.1 69.9-152.3 51.2 22.6-63.3 132.8zm96.9-276.3-56 128.1-24.7-10.9 58.5-127.6zm34.7-146.2-59.3 129.3-46.9-21.9 59.3-128.6zm-58.4-32-51.8-23.6 5.1-11.7c32.2-26 78.9-66.7 103.9-88.7zm-74.2-32.9c-19.5 12.9-48.3 21.5-85.8 25.9l-4.5-70.9c15.9-5.6 31.6-12.5 46.7-19.8zm-153.8-30.2c19.1-1.7 39-6.5 58.7-13.2l4.4 69.8c-17.9 1.9-37.7 2.8-59.4 2.8-12.1 0-24.6 2.7-36.1 6.4l-17.4-56c16.1-5 32.8-8.3 49.8-9.8zm-54.5 11.3 17.4 56.1c-22.3 7.9-39.7 18.9-40.8 19.6l-1.2.8-23 31.6c-16-14.8-34.4-32.6-48.9-48 11.6-12.2 44.5-42.9 96.5-60.1zm-237.4-4.8c51.4-10 83.3-10.2 94.9-.5 5.6 4.7 5.9 11.5 5.8 22-.1 5.5-.2 11.2 1.4 16.3 4.9 15.8 46.8 57.7 79 87.2l-21.1 29-103.5 73c-13.3-34.1-61.5-158.2-75.5-209.9-1.2-4.3-1.9-8.9-2.2-13.8 6.7-.7 13.7-1.9 21.2-3.3zm-147.6-65.3c10.9 29 28.3 75.3 111.6 70.1.4 5.7 1.2 11.2 2.6 16.3 9.3 34.3 32.6 98 51.6 148.2l-262.6-91.7 42.4-85.7 2.6 1.3 2.2-4.4-2.6-1.3 38.2-77.1c2.5 2.1 4.4 4.1 5.7 5.8 2.9 4.1 5.4 10.7 8.3 18.5zm-88.7-68.6c27.3 13.9 55.5 29.5 70.7 41.1l-38.6 78.1-75.6-38zm-59.2 78.9-59.1 110-23.3-18.1-1.5 1.9 1-2.3-39.2-16.5 47.3-112.7zm-79.2-39.8-47.4 113-67.3-28.4 50.5-116.9zm-230 338.9-41.3-18 22.7-51.2-5.7-14.6 16.8-37.5 14.7-7.4 32-73.1 39.6 19.5zm34.7-204-31.4 71.7-24.7 12.4-20.7-11 41.6-90.4zm-194.3 293.2-54.5 118.6-34.8-13.8 48.6-116.7zm13.3-154.3-47.3-20.5 71.8-166.5 2.7-1.2.6-2.5v-30.8l69.4-6.4zm21.8-220.9v22.4l-11.8-16.1-17.7 7.3 3.3-18.9 14.3 6.2zm-218.5-98.1 22.1 10.7-85.5 195.4-63-27.3zm-319.2 100.7 185.2 80.3-28.9 40.9-179.6-81.7zm-25.8 43.8 179.2 81.5-66.5 94-170.4-77.8zm111 191 39.5 18-51.9 118.8-41.5-18.9zm-100.7 102 40.2 18.3-41.8 91.4-40.3-17.2c22.8-51 38-84 41.9-92.5zm-66.1 147.5c8-18.3 15.4-35.1 22.2-50.5l40.2 17.2-37.8 82.6-33.9-19.2c1.8-9.5 4.7-19.6 9.3-30.1zm-9.9 35.5 32.6 18.5-20.9 45.8c-8.9-17.6-14.8-39.2-11.7-64.3zm14.6 69.7 22.3-48.8 43 24.4-29.1 66.7c-6.3-5-23.4-19.7-36.2-42.3zm38.4 49.5 49.6 26-40.8 93.1-51-22.6zm-44.2 101.1 51 22.6-23.3 53.2-51.4-21.6zm32.3 77.7 23.2-53.1 48.2 21.4-22.6 52.2zm60.5 30.7 125.9 52.8-13.7 33.6-29.6 24.5-111.5-44.2zm96.1 132.3-131.6 112.4-54.5-36.9 55.2-127.4zm-213.3 138.5 25.3-58.4 52.6 35.6-43.2 36.9zm39.8 16.2 42.3-36.2 3.5 2.4.2.1 107.4 44.5-16.6 44.9zm139.7 62.3 90.6 36.9-26.1 67.4-91.9-30.2zm-29.1 78.8 91.8 30.1-18.2 46.9-91-30.2zm-19.1 51.5 91.1 30.2-15.8 49.2-93-31.6zm-19.4 52.5 93.3 31.6-14.8 46.3-94.3-35.1zm-17.6 47.6 94.5 35.1-15.4 48-97.3-34.1zm-19.9 53.7 97.5 34.2-17.5 54.7-98.8-37.9zm-20.5 55.7 99 37.9-18.4 57.4-100.1-42.8zm-21.2 57.2 100.3 42.8-14.4 45.1-105.2-35.6zm102.8 95.6 37.6-37.9 63.3 8.5-54 55.5zm107-28.5 89.9 12.1-44.9 101-100.7-55.9zm49.5 115.1 12.4-27.9 69 32.3 2.1-4.5-69.1-32.4 31.1-70 133.9 18-60.8 130.7zm193.6 82.6-61.4-27.6 60.6-129.4h48.9zm127-402.9 59 17.9-66.5 212.1h-61.7zm-49.2 338.8 23.7-92.8h59.7l-23.8 87.1zm64.7-6.1 23.9-86.7h43.9l10.9-9.7 4.1.2-29.2 110.8zm68.6-24.5 18.9-71.4 48 13.5-17 71.3zm54.7 14.7 17-71.2 55.1 15.6-20.7 69.5zm108.4 29.3-52.2-14.1 20.7-69.5 49.1 13.9zm23.2-73.3 21.9-185.9 8.3-5.9 70.1 25.3-50.6 180.6zm33.6 90.2 19.6-70 53.8 15.2-19.8 67.9zm68.7 14.4 20.4-69.9 36.8-13.7 22.7 56.5zm61.8-85.3 45.9-17.1 23.2 57.9-46.3 15.7zm73.7 39.3-23.3-58.1 74.3-27.6 23 60.6zm99.6 28.3-19.5-51.4 54.3-67 44.3 34.2zm86.3-85 80.6-104.2 37.2 30.1-79.1 104zm115.9 89.5-65.4-50.5 78.9-103.7 63 51zm89.2-112 27.7-37.4 116.3-12-75.9 104.6zm123 99.6-51-41.3 23.2-31.9 52.8 35.8zm100 7.5-68.2-46.3 44.7-67.1zm-21.1-126-7.4-35.7 33.4-3.4zm-8.4-40.6-8-38.7 63.8-87.9 24.3 20.2 24.5 95.6zm84.5-109.1-25.8-21.4 29.4-40.5 76.3 154.2-54.9 5.7zm85.2 91.7-78.3-158.2 37.6-51.9 106.6 203.2zm-43.2-214.9-71.5 98.6-65.2-54.2 63.8-86.1 19.5-13.6zm-76.1-45.5-.3.2-64.1 86.5-59.2-49.2 84.5-111 58.3 60.2zm61.5-88h-11.9l-10.6-169.3 55.2-3.9 7.8 138.9zm96-82-50.9 41.1-7.7-133.6 51.4-2.6zm-7.4-100.1-51.3 2.6-8.7-151.7 48.6-3.3zm-11.8-157.3-48.5 3.3-2.7-47.8 45.5-31.1zm-2.2-95.9-1.8-24 35.2 1.2zm-7.8-39.1-52.8-1.8 49.5-79.4zm1-97.5-2.2-53.9 39-5.2zm40.3-64.5-42.6 5.7-3.2-78.4 72.1 30.5zm8.3-213.9-58 134.1-48.4-20.4 63.3-132.7z" fill="#fff" opacity=".1" />
    <path d="M544,707a8,8 0 1,0 16,0a8,8 0 1,0 -16,0" stroke="#a26cff" stroke-width="16" fill="none" data-duration="0"/>
    <path d="m557.8 707.7 154.2 69.8 50-132 57.5-126.5 95 41-51 129 142.8 63.3 92.7 41.2 77.5 60 224-243.5 301.1 236.4" fill="none" stroke="#a26cff" stroke-linecap="round" stroke-miterlimit="10" stroke-width="11"/>
    <path d="M1690,847a8,8 0 1,0 16,0a8,8 0 1,0 -16,0" stroke="#a26cff" stroke-width="16" fill="none" data-duration="0" />
</svg>