<svg height="748.56403" viewBox="0 0 748.559 748.564" width="748.55902" xmlns="http://www.w3.org/2000/svg"><path d="m0 374.285c0-206.701 167.561-374.285 374.285-374.285 206.707 0 374.273 167.584 374.273 374.285 0 206.713-167.566 374.279-374.273 374.279-206.724 0-374.285-167.572-374.285-374.279" fill="#067655"/><path d="m11.033 374.285c0-200.607 162.627-363.234 363.246-363.234 200.613 0 363.246 162.627 363.246 363.234s-162.632 363.246-363.246 363.246c-200.619-.006-363.246-162.638-363.246-363.246" fill="#fff"/><g fill="#067655"><path d="m374.28125 22.875c-194.086.000001-351.406251 157.33224-351.40625 351.40625.000001 194.08003 157.31424 351.40625 351.40625 351.40625 194.07403.00002 351.40626-157.32623 351.40625-351.40625.00002-194.074-157.32623-351.40625-351.40625-351.40625zm3.3125 25.03125c10.70579.104419 21.04188 1.471938 30.09375 5.9375 5.92999 5.313998 7.61651 12.305502 7.3125 20.0625-1.676 5.484002-4.71874 10.785752-9.59375 14.59375 5.93599 4.406 11.87326 8.971003 12.78125 16.875 1.682 7.758-.62524 14.74825-5.03125 20.53125-9.27 10.488-24.01124 7.77375-37.40625 8.21875l-35.375.9375-.21875-3.21875-3.65625-80.3125-.15625-1.75c13.08713-.084937 27.48542-2.009252 41.25-1.875zm67.96875 8.21875 28 9.03125c-6.246 18.023004-14.44499 35.8045-18.875 54.8125-.44501 4.729 2.34701 9.60375 7.75 10.96875 3.73801 2.057 9.06901 2.443 11.875 0 12.023-16.875 17.71401-37.874496 25.25-56.8125 9.58001 3.351998 17.06276 8.158252 26.34375 11.65625-9.90198 20.988-15.99349 45.6815-29.6875 62.9375-9.885 8.672-25.54724 6.55025-37.40625 3.65625-13.54099-4.85701-28.30524-13.533-32.40625-28.75-3.188-10.418 11.25826-46.142997 19.15625-67.5zm-161.84375 5.53125c8.62523-.221131 16.69001 2.253127 23.4375 9.21875 5.473 6.081999 6.22801 14.585752 6.375 22.34375-1.35401 5.010003-2.60349 10.04925-5.9375 14.15625 7.213 8.883 20.63626 18.96325 29.90625 27.78125l-1.15625.375-27.375 6.0625c-9.738-7.834-15.24574-13.3805-23.71875-19.1875-3.64999.445-6.16574 2.602-9.59375 4.125l9.40625 21.59375-25.6875 14c-10.54099-25.711-23.44899-55.758-33-79.875 16.62926-6.690748 38.36825-20.107261 57.34375-20.59375zm270.90625 51.90625c15.91115.29564 30.14564 7.05 39.6875 18.75 5.18001 6.381 8.66352 14.28675 10.9375 22.34375-6.38701 3.43401-11.25573 7.3325-17.34375 10.0625-1.50601-9.42799-6.66248-19.039-15.9375-23.75-4.41202-2.59-10.98998-3.01975-16-1.34375-7.76399 2.883-14.42348 9.5545-17.3125 17.3125-2.58998 7.453.29152 14.75425 4.5625 20.53125 5.92401 6.69699 13.83427 10.20101 22.78125 10.5-4.02002 6.615-6.22323 10.78876-10.03125 15.96875-14.91799-2.13299-28.89224-10.34249-37.40625-24.1875-7.30103-11.701-7.73674-29.64575-1.34375-41.96875 6.68598-13.547 19.90852-22.2075 34.1875-24.1875 1.07481-.03813 2.15803-.05096 3.21875-.03125zm-376.78125.28125 2.59375 1.59375c25.184 15.381 51.05751 33.486 76.5625 48l-2.625 1.75-20.09375 13.21875c-7.494-3.949-11.87074-6.617-17.34375-9.125l-22.21875 18.71875c2.28499 5.48399 5.19301 12.16801 7.625 18.25l-19.84375 22.1875-1.59375-3.5-35.15625-83.5zm195.625 42.53125c119.51303 0 216.40625 96.9125 216.40625 216.4375 0 119.50802-96.89325 216.375-216.40625 216.375-119.51298.00004-216.40625-96.867-216.40625-216.375 0-119.52499 96.89325-216.4375 216.40625-216.4375zm250.03125 8.15625 16.4375 21.625c-6.99002 6.996-16.24873 12.93401-23.71875 19.625 11.871 2.578 25.23027 2.11276 37.40625 4.09375 5.47899 7.922 8.36052 15.51876 13.6875 25.09375l-44.6875-3.15625c-9.89098 15.51-18.88023 31.31851-27.40625 47.4375-5.31402-7.75801-9.41373-17.80274-14.59375-26.46875 5.78899-11.71901 13.29877-24.09349 19.09375-35.8125-9.961 6.17001-18.70673 14.15026-28.84375 20.53125l-15.78125-21.21875c21.29298-18.252 44.22877-34.52874 66.59375-51.09375zm-503.96875 5.25 18.3125 10.75c-4.043 8.361-9.3475 14.07651-13.0625 22.0625l52 34.21875c-2.742 7.752-8.6605 15.37051-13.6875 22.8125l-53.375-33.3125c-4.787 6.311-8.23825 12.78076-13.03125 20.84375-6.996003-4.635-11.942498-7.69974-17.5625-11.71875 13.242002-22.07201 25.81025-42.75824 40.40625-65.65625zm-45.40625 83.4375c4.553999 2.59999 9.882752 6.56201 14.59375 10.5-9.439001 7.31799-16.136248 17.96101-14.15625 30.125 1.072004 1.82199 2.125502 4.54301 4.5625 5 7.600001.00001 10.195503-8.19174 13.6875-13.21875 4.112999-9.12901 12.0195-19.00849 22.8125-20.0625 9.275-.60401 17.20525 1.82401 23.28125 9.125 9.275 11.11501 7.61975 29.03176 3.21875 41.96875-4.12501 9.57999-10.502 19.31651-19.625 25.5625l-16.4375-10.03125c8.977-6.22301 18.412-16.44174 19.625-27.84375 0-4.10701-.8985-9.57424-5.9375-10.03125-10.488 3.04699-11.57075 15.65851-18.71875 22.8125-5.473004 5.63101-12.321998 9.86926-21 8.65625-8.062997-.463-14.913998-5.48299-19.625-11.875-8.977-13.68201-4.534498-33.76699.9375-44.25 3.356999-5.941 7.308252-11.86149 12.78125-16.4375zm585 7.09375c10.56628-.12844 20.74552 6.36526 25.53125 15.28125 7.89799 12.76799 10.96277 29.66051 6.84375 45.1875l-16.875-.90625c2.29098-10.195 3.96052-22.98099-3.1875-31.5-2.12703-2.58399-5.91423-4.12699-8.65625-2.75-9.27497 10.34202.75177 25.26176-5.03125 36.96875-2.74801 5.33201-6.84623 11.71101-12.78125 14.125-9.59197 3.65601-21.44898 1.83826-28.75-5.46875-14.28498-14.906-20.98373-38.03499-11.84375-57.5h17.78125c-3.04102 7.62299-5.16423 18.42926-2.28125 27.40625 1.51199 3.80299 3.35727 8.66626 7.78125 10.03125 14.59602.52701 4.68952-20.38099 8.1875-30.125 1.37101-7.30101 5.33327-14.89799 12.78125-18.25 3.42025-1.673 6.97793-2.45718 10.5-2.5zm-561.75 147.59375 8.21875 24.21875c9.211-.04701 18.07875.28551 27.59375.0625l-21.1875 17.71875c2.039 7.45299 3.791 16.00401 6.375 26l-21-14.59375c-8.829997 4.03099-14.132998 8.98251-23.25 13.6875l7.3125-25.09375c-6.932003-5.672-14.698998-11.06674-21.25-16.84375 9.551001-.24599 17.922252.12551 27.15625-.0625 4.266001-7.97499 6.152253-17.11274 10.03125-25.09375zm552.90625.125 8.1875 24.1875c9.19901-.03499 17.42552.23601 27.5625.125l-21.15625 17.6875c2.05698 7.436 3.80302 16.02326 6.375 26.03125l-20.96875-14.625c-8.84203 4.02-14.15223 8.97651-23.28125 13.6875l7.28125-25.09375c-6.92-5.66-14.67248-11.06574-21.1875-16.84375 9.52697-.24599 17.89702.15676 27.125-.03125 3.72699-8.30899 6.40052-16.31199 10.0625-25.125zm-479.1875 120c4.29797-.08042 8.66401.36726 13 1.28125 11.682 3.19899 22.66026 12.00752 29.65625 22.8125 1.834 4.40597 4.46276 7.89002 5.59375 14.5-4.863 3.05898-11.00249 5.56952-16.5625 8.3125-1.35399-10.04298-10.17849-19.78498-20.0625-22.375-8.209-2.03901-17.174 1.86127-23.25 9.15625-5.02699 5.91798-6.55525 14.42202-5.03125 21.875 3.961 10.324 14.902 18.12502 26 18.125l3.1875.125c-3.029 7.31298-4.99449 10.95252-8.1875 16.4375-18.416-.62699-36.9635-11.41773-43.8125-29.21875-5.93001-14.438-3.3385-33.13223 5.9375-45.15625 8.442-10.71373 20.63734-15.63372 33.53125-15.875zm385.34375 4c4.417 2.90101 7.60777 6.70527 11.84375 10.53125l1.15625 1.125-27.375 25.46875 9.125 11.03125c7.75198-6.08202 16.11527-12.56648 24.40625-20.3125 4.26002 3.57398 7.69977 7.76602 11.71875 12.5-8.19701 7.816-16.73798 13.13477-23.875 20.59375 3.04102 3.81401 5.39127 8.11752 10.03125 12.6875l29.53125-24.34375 12.59375 13.03125c-16.72901 15.88497-34.96948 32.24652-52.3125 44.9375l-51.5625-66.625c16.436-13.69899 30.26377-26.17598 44.71875-40.625zm-319.21875 45.09375c16.78117.08771 32.03063 8.27033 40.875 21.53125 9.275 11.86498 9.40801 30.27752 3.625 43.8125-6.45101 13.77001-18.82899 22.52152-32.375 25.5625-16.406 2.57798-31.94149-2.72198-43.8125-14.125-10.48801-11.56602-16.25149-28.16723-10.9375-44.28125 4.717-17.496 21.74801-30.27423 39.25-32.40625 1.13081-.067 2.25627-.09958 3.375-.09375zm264.65625 1c3.43501 4.006 5.43151 8.56627 8.4375 13.40625l.78125 1.4375-33.40625 16.75 5.65625 13.125c10.18901-3.89097 18.99401-7.50398 29.125-12.625 3.08801 4.64103 5.20701 9.59602 7.75 15.25-9.188 4.89803-18.70474 8.69277-28.71875 13.09375 1.86299 4.50002 2.79351 7.78102 6.0625 15l35.1875-15.0625 8.46875 16.03125c-20.51998 10.54702-42.62874 21.11852-62.84375 28.4375l-30.8125-78.40625c19.61701-8.53102 36.39451-16.64048 54.3125-26.4375zm-197.3125 27.75c20.232 4.371 40.95351 8.17702 60.6875 11.125-1.10101 6.19702-1.48099 13.65202-2.5 21.375-12.72699-2.13299-24.87449-4.39073-37.0625-6.21875-.68 6.09402-2.39624 9.75702-2.90625 14.375 10.93899 3.25803 21.06101 4.37852 31.625 6.3125l-3 19.5625c-10.50601-1.35902-21.83074-3.19098-32.59375-5.5-2.38501 8.484-4.53699 19.16627-7.625 28.40625-8.97699-1.43001-18.50224-3.45898-27.15625-6.875l20.0625-80.90625zm131.875 1.90625c.845 6.23798 2.72876 13.46227 4.09375 21.15625-12.79699 1.84598-25.00049 3.36277-37.1875 5.34375 1.23001 6.00001.67476 10.02377 1.59375 14.59375 11.414-.22302 21.37926-2.24798 32.03125-3.625l3.125 19.5c-10.418 1.91003-21.78474 3.64077-32.71875 4.71875.305 8.81801 1.48476 19.60477 1.34375 29.34375-8.971 1.37097-18.65549 2.35902-27.9375 1.75l-5.46875-83.1875-.09375-1.75c20.59599-1.97999 41.53176-4.64473 61.21875-7.84375z" transform="translate(0 -.000002)"/><path d="m383.959 67.969c2.121 2.268 1.682 6.996.445 9.586-3.943 4.57-11.244 4.4-17.332 3.639.445-5.162-1.459-10.189-1.078-15.504 5.174.755 14.162-1.835 17.965 2.279"/><path d="m283.57 88.951c1.506 3.803 1.6 9.996-1.641 12.252l-15.053 6.387c-3.756-6.908-5.355-11.643-7.939-17.256 6.991-2.59 18.997-13.084 24.633-1.383"/><path d="m388.975 102.645c1.207 5.332-1.213 10.805-6.393 11.877-4.863.75-8.508.299-13.682.445-.762-5.484-1.207-12.779-.762-17.344 6.991.914 17.503-2.889 20.837 5.022"/><path d="m199.148 157.863c-4.102 3.809-8.672 7.453-13.682 10.945-3.656-8.672-7.16-16.43-10.957-26.01 8.737 4.647 16.413 10.038 24.639 15.065"/></g><path d="m371.875 171.625c-32.64222.27037-65.00872 7.85805-91.0625 22.75-64.3299 32.7071-103.098 99.16425-108.125 167.90625l1.8125 3.65625c24.1821 12.9321 39.85349-15.51151 63.4375-12.3125 5.3151 2.4381-1.06425 6.53324-.90625 10.03125-1.8399 4.5581-8.24175 2.42624-12.34375 3.65625-16.1309 6.9901-32.7015 20.53175-51.5625 13.21875 0 .0001.13524 1.41049.28125 3.4375h-.03125c.392 5.18509 1.12501 14.37501 1.125 14.375 21.14709 6.70409 34.822-15.37726 54.75-12.78125-.46891 4.40609-.7615 9.12451-3.1875 12.3125-18.25191.92509-29.67775 18.10725-48.84375 16.90625l3.65625 14.59375c16.57009 1.68109 27.2365-15.36351 43.8125-13.6875l-.4375 10.9375c-14.60691 1.36609-24.03325 15.05475-38.78125 15.96875 1.96809 33.76209 25.365-5.17601 40.125 1.375.60309 3.64409 2.752 7.14874 1.375 10.96875-11.86491-.16391-19.32024 10.1955-29.65625 13.6875 1.82209 4.25409 3.045 10.33174 7.75 11.84375 8.83009-3.64991 15.98075-11.38249 26.46875-10.9375-1.21191-3.96091-2.27549-9.28923-1.8125-12.78125 13.22509 3.49309 20.84401-6.86326 30.125-12.78125 2.12109-18.72591 15.18699-33.00425 23.25-49.28125.86109-3.59191 1.15275-7.16176 1.09375-10.71875-.4099-19.7869-12.32225-38.91951-2.90625-59.5625 2.8951-8.0619 7.91751-18.68374 16.4375-20.96875-15.6679 18.7151-12.7715 47.2965-4.5625 68.4375 1.6591 4.3011 2.25175 8.29674 2.09375 12.09375-.70296 16.68704-16.2285 29.40598-22.1875 44.5-7.43496 15.06504-.623 32.26174 7.75 44.71875-12.01196 9.28104-23.11325 21.13249-38.78125 21.4375-4.40096-2.14996-4.55874-8.1995-6.84375-12.3125-9.26996-1.83396-16.70325 4.56601-24.15625 9.125l8.65625 10.9375c6.38604-3.04696 13.705-9.55901 21-5 10.80404 12.78004-10.52 6.35501-13.25 14.125 3.02904 4.10704 6.697 7.14798 10.5 10.5 4.40604-1.37096 7.912-4.87498 13.25-4.125 2.12704 2.58404 4.55476 5.17174 5.46875 8.21875l-8.21875 5.03125c5.93504 6.08208 13.39424 11.87098 20.53125 14.625 4.26604-14.31996 15.668-25.404 21-39.25 1.06604-5.32596 1.35977-11.72649 2.71875-16.4375 15.35704 23.87704-16.87499 38.02951-16.875 60.6875 3.35704 3.03508 7.45726 4.69898 11.40625 6.375-.60996-17.78892 14.30225-29.19099 20.53125-44.25 11.41404-23.88296-14.90824-38.78951-23.28125-57.9375-7.90996-17.35596 3.19924-33.64851 14.15625-46.5625 7.62904-8.23796 9.61151-16.30226 8.9375-24.40625-1.5179-18.3579-16.6525-36.79124-10.3125-57.28125 3.6571-12.7739 9.11875-27.9985 22.34375-33.3125-9.5859 11.0921-14.60399 24.02726-15.5 38.78125-2.6659 20.0451 13.39849 33.9825 14.3125 51.8125.17005 3.55705-.25426 7.26149-1.53125 11.1875-7.45295 16.12505-24.32851 28.2655-24.1875 47.4375-1.97995 25.23005 31.03099 34.83774 27.375 60.71875-.29895 22.51205-26.15025 34.95325-20.53125 59.28125l14.15625 4.59375c-8.06295-27.3749 20.37924-42.61376 20.53125-67.09375 1.36505-20.69495-20.83774-31.48026-26.46875-49.28125-5.92395-17.64895 6.99599-31.78151 16.875-45.1875 4.85805-7.56395 5.99775-14.69526 5.21875-21.65625-1.9809-17.2499-15.90599-33.39999-15.25-52.25-.3099-17.3379 7.28475-34.3805 22.34375-42.4375-4.5459 6.5271-9.72249 12.76151-12.3125 20.0625-9.4339 25.5641 6.39824 47.473 14.15625 69.375.5971 1.8111 1.01599 3.55101 1.25 5.25 2.91806 20.29706-17.87449 33.25424-21.8125 51.78125-5.32594 22.51206 18.8735 32.8475 24.1875 51.5625 11.41406 30.55706-25.54099 48.36353-16.875 78.9375-.15194 8.97712 10.34374 5.49052 15.96875 7.3125-13.68694-25.24188 8.38251-46.08375 15.0625-67.96875 7.45906-23.43694-14.87524-36.67624-24.15625-54.78125-9.74994-20.37794 12.4435-33.00751 17.3125-50.1875 4.09506-11.71894 14.61876-.90426 21.46875-2.28125 9.28106 1.69406 17.32976-7.45725 25.09375-.90625 3.79106 15.51606 21.72899 25.09376 21.875 41.96875-.60894 26.14406-38.46049 39.8375-26.4375 68.4375 9.88506 19.93406 26.75001 42.73876 15.5 65.71875l14.125-3.1875c9.43306-23.58388-8.03924-41.69875-16.40625-60.71875-7.59894-21.73794 11.42151-38.00775 22.8125-54.71875 10.81706-20.23794-6.52125-36.84399-16.40625-52.5-3.40994-6.44494-4.10724-12.56276-3.28125-18.46875 1.7411-12.5209 10.31076-24.15975 14.21875-35.84375 8.3671-19.9159 3.646-44.69101-11.875-59.75l.46875-.46875c7.7581 4.5701 14.752 12.62725 18.25 20.53125 13.3121 26.7711-5.72651 50.48225-10.4375 75.53125l-.5 2.96875c-.45096 17.66004 14.00399 26.02325 21 40.15625 11.70104 22.81104-8.97024 38.93899-20.53125 56.125-18.72096 32.09204 26.00401 50.94524 16.875 83.03125l13.6875-4.5625c3.49204-17.20292-9.44551-31.16425-17.8125-45.15625-11.54896-23.43096 9.13499-41.52348 21-59.3125 10.49404-22.20696-7.75001-40.92374-18.25-57.96875-3.35696-4.90396-4.41801-10.07826-4.125-15.28125h.03125c.5511-9.9609 6.04125-20.05826 10.03125-28.53125 7.9111-21.3039 2.42775-47.13674-11.40625-62.96875 9.2811 3.8091 16.10324 14.16425 19.15625 23.28125 10.9521 22.6641-2.43774 45.32601-6.84375 66.625l-.03125 1.59375c-.16893 20.42607 19.18325 31.7145 24.65625 49.9375 5.33207 18.86807-9.71051 31.94526-18.6875 45.65625-26.92393 27.99607 15.05674 48.98224 14.59375 76.65625 3.96107-1.66986 9.12126-2.45722 11.40625-6.40625-1.97993-15.35093-15.05225-26.16425-20.53125-40.15625-.29893-6.68593-1.826-14.91251 2.75-20.0625l.90625.90625c-1.66993 22.34807 17.80675 35.89473 23.71875 55.21875 6.86107-4.12986 13.994-8.043 19.625-14.125-2.12093-2.13793-5.3105-3.80127-8.1875-5.03125-1.54693-3.34593 2.87301-6.54673 5-9.59375l12.75 4.5625c3.80307-3.50393 7.94153-6.3675 10.0625-10.9375-4.56993-3.19893-9.58951-5.50426-15.0625-6.40625-.17493-3.49193 1.80274-6.22424 4.09375-8.65625 7.77607-.29793 13.85973 3.34 20.09375 6.375 3.33407-3.02893 7.01772-6.975 8.21875-11.375l-16.4375-8.21875c-11.25593-7.14893-8.2145 8.35176-13.6875 11.84375-15.35693-.60893-26.303-11.41401-37.875-21 1.37107-6.98393 6.84749-12.29524 8.6875-19.15625 6.69107-22.34693-11.10901-39.21323-21-57.03125-2.47893-4.35893-3.40399-8.68201-3.375-13 .0821-12.1109 7.49849-24.18201 7.9375-36.75 3.7971-16.2719-3.8165-31.91425-10.0625-45.15625 4.2711 2.5901 8.8535 6.06275 11.4375 10.46875 8.5131 16.7341 10.94549 40.02775 3.1875 57.96875-1.9099 4.8051-2.5525 9.27974-2.3125 13.46875 1.24808 21.01208 24.86099 35.72625 25.125 58.15625 9.11208 6.85508 17.35726 18.28099 29.65625 14.625.92008 4.40608-1.52698 9.09376-1.375 13.21875 10.95108-.60992 18.26376 7.623 27.84375 10.5 2.27916-3.95492 6.2365-7.91374 5.9375-12.34375-10.79284-3.18792-18.55051-13.81401-30.5625-14.125l2.25-10.5c12.63808-.30492 21.91023 10.361 33.78125 13.25 4.10816-3.05892 5.46675-8.6715 6.84375-13.6875-14.59584-2.27892-25.09152-14.62124-39.6875-16.90625.29308-3.62692-.76373-7.87349.90625-10.9375 13.84016.00008 22.96676 11.12126 35.59375 14.15625 12.16416 5.77808 8.1955-8.67224 10.9375-14.15625-19.32384.77408-31.00976-17.16626-49.71875-17.78125l-2.28125-11.4375c20.22116-3.32792 33.90798 18.73651 54.75 12.8125 2.01016-5.27392 1.52699-9.69876 1.375-14.84375l-.03125-3.4375c-23.5728 9.2931-39.07572-14.28301-61.59375-14.125-2.9059-3.3459-3.66025-7.44526-5.03125-11.40625 25.4061-8.1969 42.14474 28.41749 67.09375 9.5625-1.9628-30.8839-8.53348-59.89801-22.8125-85.75-14.9238-29.5139-42.42951-58.58175-71.1875-76.21875-29.61099-20.96271-69.41659-31.29506-108.8125-30.96875zm1.59375 12.71875c5.02001 6.84302 6.6895 15.808 10.9375 23.25l24.65625 1.375-.46875 2.28125-18.25 17.34375c3.18202 7.76402 6.39475 15.54025 9.59375 23.28125 13.84001-8.04499 27.0835-18.1095 43.8125-19.1875-1.52297 8.83601-8.2145 18.1305-7.3125 26.9375 10.34802-2.88898 19.77525-9.2855 31.03125-8.6875-7.00799 12.93802-17.2025 25.887-17.8125 42-15.36297-5.76599-31.16475-12.769-48.34375-15.5-36.65597-6.24598-71.969 1.79225-102.25 16.40625-2.57799-15.36297-10.02725-28.727-19.15625-41.5 5.47303-1.82798 12.1695 1.17775 17.8125 2.71875 4.71701 1.35402 8.6665 4.574 13.6875 5.5.89601-9.12899-4.42175-18.132-8.21875-26.5 2.58403-1.97998 6.70475-.46325 9.59375.46875 12.00601 4.55302 22.798 11.693 33.75 18.25 5.62501-6.55698 7.74625-15.98425 10.03125-24.65625l-18.6875-16.875v-1.8125l24.625-1.375c4.10203-7.75198 6.86175-15.96075 10.96875-23.71875zm-159.28125 82.5625c1.41395.08903 2.98625 1.27625 4.125 1.84375 11.725 9.12899 17.34775 21.74775 18.71875 35.59375 14.748-5.637 34.805-15.37825 50.625-5.03125-3.35701 4.71099-9.85975 7.31125-14.59375 11.40625-7.74601 7.605-17.1875 16.88875-22.8125 26.46875-19.014-3.809-34.2205 7.3015-50.1875 13.6875-6.08199 1.20699-14.14125 1.81975-19.15625-2.28125 15.05899-24.803 36.315-47.6175 31-80.3125.6285-1.08563 1.43288-1.42842 2.28125-1.375zm320.375.46875c1.96901.299 3.33475 2.4475 2.71875 4.5625-5.918 31.02503 15.35925 52.93125 29.65625 76.65625-16.41796 10.957-31.96475-5.92925-47.46875-10.03125-6.84402-1.06098-14.8805-1.97225-21.4375-.90625-9.40999-14.59001-22.04325-28.291-37.40625-36.5.90202-5.00999 7.90025-5.3285 12.78125-5.9375 13.535-1.35398 25.391 4.24825 36.5 10.03125 2.127-5.00999 3.01925-10.65375 4.53125-15.96875 3.66802-8.97699 10.849-18.11525 20.125-21.90625zm-162.75 16.40625c.83118-.0169 1.66516-.0079 2.5 0 4.45265.04234 8.94979.40704 13.28125.9375 8.83103 2.27902 18.56454 6.09829 22.8125 15.53125.46904 2.58402 3.05104 4.86104 1.375 7.75-8.97696-2.74798-19.16571-1.21671-27.84375 2.28125-7.76396 5.77705-6.54346 17.64404-4.5625 26l2.3125 1.84375c3.79703-.91998 3.94729-5.79696 7.28125-6.875 5.63702 1.37703 13.39879 3.36304 18.71875 0 4.71103.15803 4.55404 6.70454 5 10.0625-3.33996 17.64302-10.77171 36.79529-28.71875 45.15625-7.45897 3.65604-17.07071 1.20304-24.21875-1.375-17.63698-10.49396-27.51121-31.30021-25.53125-50.15625 1.37102-2.88896 3.49279-5.19971 6.84375-3.21875 7.13104 4.86302 14.88754-3.78371 21.4375 2.28125 7.90404-3.49796 3.18754-13.22421 3.1875-20.53125-6.38698-8.22097-17.32621-7.02121-26.90625-6.40625-4.26598-2.59596.32704-6.66746 1.375-9.5625 7.27598-10.26278 19.18899-13.46476 31.65625-13.71875zm-28.9375 30.96875c5.92426-.21736 11.75652 2.01708 14.59375 6.46875v1.84375c-5.16797-.46298-13.52698-5.63273-18.25.90625-3.03497 1.35905-3.49148-2.15698-3.1875-4.125-.60898-2.27896.77002-4.09123 2.75-4.53125 1.33841-.31422 2.72664-.51231 4.09375-.5625zm58.375.5c4.24159-.08693 8.6754.23653 10.53125 3.6875-.14096 1.84002.32053 3.96528-1.8125 5.03125-5.78297-2.27895-13.84197-5.48322-19.625-.90625-3.35197-7.15398 5.93703-5.62897 9.125-7.75.5904-.02122 1.17534-.05005 1.78125-.0625zm-26.9375 29.8125c-3.25047-.00147-6.62499.9495-9.0625 2.625.29903 1.21903-.75174 3.04126.90625 3.65625 4.86903-1.05497 13.68125 2.5895 16.40625-3.1875-1.89847-2.12647-4.99949-3.09224-8.25-3.09375zm-17.28125 14.9375.4375 2.75c5.94103 3.95503 7.77305 10.66654 16 10.0625 7.29503.43403 12.77329-6.40195 16.40625-11.875-9.87297-1.36597-21.8867.74455-32.84375-.9375z" fill="#010101" transform="translate(0 -.000002)"/><path d="m258.932 609.627c5.15 12.012-.773 23.871-9.141 32.385-5.314 4.26-12.281 6.938-19.271 4.354-4.4-2.133-9.844-6.023-11.063-10.746-3.352-12.164 2.209-23.566 10.717-31.934 5.174-4.266 12.627-6.691 19.154-3.65 3.961 1.206 8.373 5.63 9.604 9.591" fill="#067655"/><path d="m621.193 688.816c11.889 0 22.084 9.246 22.084 21.791 0 12.662-10.184 21.896-22.084 21.896-12.012 0-22.201-9.234-22.201-21.896 0-12.544 10.19-21.791 22.201-21.791zm0 3.534c-10.131 0-17.959 7.834-17.959 18.258 0 10.652 7.834 18.369 17.959 18.369 10.014 0 17.842-7.705 17.842-18.369-.006-10.424-7.828-18.258-17.842-18.258zm-4.658 30.92h-3.879v-25.207h9.65c6.006 0 8.953 2.238 8.953 7.178 0 4.541-2.83 6.48-6.598 6.949l7.184 11.074h-4.236l-6.715-10.951h-4.365v10.957zm0-14.133h4.6c4.711 0 6.24-1.359 6.24-4.131 0-2.408-1.178-3.768-5.596-3.768h-5.244z" fill="#010101"/></svg>