<svg fill="none" height="51" width="51" xmlns="http://www.w3.org/2000/svg"><path d="m15.8 28.09v-2.959h3.21v-10.78h9.268c1.104 0 2.114.157 3.03.462s1.699.744 2.356 1.323 1.167 1.292 1.535 2.145c.36.861.548 1.84.548 2.944s-.18 2.082-.548 2.943-.877 1.574-1.535 2.145c-.657.58-1.44 1.018-2.356 1.323s-1.926.454-3.03.454h-6.098v2.435h9.018v2.96h-9.018v4.258h-3.17v-4.267h-3.21v-2.959h3.21v-2.435h-3.21zm16.768-6.865c0-1.269-.399-2.24-1.197-2.905s-1.832-1.002-3.1-1.002h-6.099v7.82h6.099c1.268 0 2.301-.336 3.1-1.001.798-.681 1.197-1.644 1.197-2.912z" fill="#fff"/><g stroke="#fff" stroke-miterlimit="10"><path d="m25.311 47.92c12.322 0 22.311-9.99 22.311-22.311 0-12.322-9.989-22.311-22.31-22.311-12.324 0-22.312 9.989-22.312 22.31 0 12.324 9.989 22.312 22.311 22.312z" stroke-width="6"/><path d="m7.697 9.56 32.097 32.097" stroke-width="3"/></g></svg>